<svg width="290" height="103" viewBox="0 0 290 103" fill="none" xmlns="http://www.w3.org/2000/svg">
<path d="M39.5625 40.16H51.0025V40.96H50.6025C50.1758 40.96 49.8025 41.12 49.4825 41.44C49.1625 41.7067 48.8958 42.0533 48.6825 42.48C48.4692 42.9067 48.2825 43.36 48.1225 43.84C48.0158 44.32 47.9625 44.7467 47.9625 45.12L47.9625 66.56C47.0025 66.9333 45.9092 67.2533 44.6825 67.52C43.4558 67.7867 42.1758 68 40.8425 68.16C39.5092 68.3733 38.1492 68.5333 36.7625 68.64C35.3758 68.7467 34.0958 68.8 32.9225 68.8C28.1225 68.8 23.9358 68 20.3625 66.4C16.7892 64.8 13.8292 62.72 11.4825 60.16C9.13583 57.5467 7.37583 54.6133 6.2025 51.36C5.0825 48.1067 4.5225 44.8267 4.5225 41.52C4.5225 38.2133 5.0825 34.9333 6.2025 31.68C7.37583 28.4267 9.13583 25.52 11.4825 22.96C13.8825 20.4 16.8692 18.3467 20.4425 16.8C24.0692 15.2 28.3625 14.4 33.3225 14.4C35.1892 14.4 36.9225 14.56 38.5225 14.88C40.1225 15.2 41.5358 15.4933 42.7625 15.76C43.4558 15.92 44.0425 16.08 44.5225 16.24C45.0558 16.3467 45.5092 16.4 45.8825 16.4H46.6025V24.88H45.8025C45.4825 23.2267 44.8425 21.8933 43.8825 20.88C42.9758 19.8667 41.9092 19.0933 40.6825 18.56C39.4558 18.0267 38.1492 17.68 36.7625 17.52C35.4292 17.3067 34.1758 17.2 33.0025 17.2C29.0025 17.2 25.5358 17.92 22.6025 19.36C19.6692 20.7467 17.2692 22.56 15.4025 24.8C13.5358 27.04 12.1492 29.5733 11.2425 32.4C10.3358 35.1733 9.8825 37.9467 9.8825 40.72C9.8825 43.8133 10.4692 46.88 11.6425 49.92C12.8158 52.9067 14.4692 55.6 16.6025 58C18.7358 60.3467 21.2958 62.2667 24.2825 63.76C27.3225 65.2 30.6825 65.92 34.3625 65.92C35.3758 65.92 36.6292 65.8133 38.1225 65.6C39.6158 65.3333 41.1092 64.7733 42.6025 63.92L42.6025 45.12C42.6025 44.7467 42.5492 44.32 42.4425 43.84C42.3358 43.36 42.1492 42.9067 41.8825 42.48C41.6692 42.0533 41.4025 41.7067 41.0825 41.44C40.7625 41.12 40.3892 40.96 39.9625 40.96H39.5625V40.16ZM88.3006 67.2H88.7006C89.9806 67.2 90.6206 66.6133 90.6206 65.44C90.6206 65.0133 90.5406 64.56 90.3806 64.08L83.1806 44.64H69.1806L62.2206 63.76C62.0606 64.1867 61.9806 64.5867 61.9806 64.96C61.9806 65.6533 62.1673 66.2133 62.5406 66.64C62.914 67.0133 63.314 67.2 63.7406 67.2H64.1406V68H55.2606V67.2H55.6606C56.354 67.2 57.0206 66.8 57.6606 66C58.354 65.1467 58.914 64.16 59.3406 63.04L77.6606 14.24L95.5806 62.56C95.954 63.6267 96.4606 64.6667 97.1006 65.68C97.794 66.6933 98.674 67.2 99.7406 67.2H100.141V68H88.3006V67.2ZM69.9806 41.92H82.3006L76.1406 25.2L69.9806 41.92ZM104.928 67.2H105.328C105.755 67.2 106.128 67.0667 106.448 66.8C106.768 66.48 107.035 66.1067 107.248 65.68C107.515 65.2533 107.701 64.8 107.808 64.32C107.968 63.84 108.048 63.3867 108.048 62.96V20.16C108.048 19.7867 107.968 19.36 107.808 18.88C107.701 18.4 107.515 17.9467 107.248 17.52C107.035 17.0933 106.768 16.7467 106.448 16.48C106.128 16.16 105.755 16 105.328 16H104.928V15.2H116.448V16H116.048C115.621 16 115.248 16.16 114.928 16.48C114.608 16.7467 114.341 17.0933 114.128 17.52C113.915 17.9467 113.728 18.4 113.568 18.88C113.461 19.36 113.408 19.7867 113.408 20.16V65.04L130.928 65.04C131.941 65.04 132.821 64.8 133.568 64.32C134.315 63.84 134.928 63.2533 135.408 62.56C135.941 61.8133 136.315 61.04 136.528 60.24C136.795 59.3867 136.928 58.6133 136.928 57.92H137.728V68L104.928 68V67.2ZM142.116 67.2H142.516C142.942 67.2 143.316 67.0667 143.636 66.8C143.956 66.48 144.222 66.1067 144.436 65.68C144.702 65.2533 144.889 64.8 144.996 64.32C145.156 63.84 145.236 63.3867 145.236 62.96V20.16C145.236 19.7867 145.156 19.36 144.996 18.88C144.889 18.4 144.702 17.9467 144.436 17.52C144.222 17.0933 143.956 16.7467 143.636 16.48C143.316 16.16 142.942 16 142.516 16H142.116V15.2L172.916 15.2V22.64H172.116C172.009 21.4133 171.529 20.3467 170.676 19.44C169.822 18.48 168.489 18 166.676 18H150.596V38.24H163.876C165.102 38.24 166.116 37.8667 166.916 37.12C167.769 36.3733 168.196 35.4933 168.196 34.48H168.996V44.48H168.196C168.196 43.52 167.796 42.6933 166.996 42C166.196 41.3067 165.156 40.96 163.876 40.96H150.596V65.2H168.116C169.129 65.2 170.009 64.96 170.756 64.48C171.502 64 172.116 63.44 172.596 62.8C173.129 62.1067 173.502 61.3867 173.716 60.64C173.982 59.84 174.116 59.1733 174.116 58.64H174.916V68H142.116V67.2ZM189.344 67.2H189.744V68H180.864V67.2H181.264C181.637 67.2 181.984 67.04 182.304 66.72C182.677 66.4 182.97 66.0267 183.184 65.6C183.397 65.1733 183.557 64.72 183.664 64.24C183.824 63.7067 183.904 63.2267 183.904 62.8V20.16C183.904 19.7867 183.85 19.36 183.744 18.88C183.69 18.4 183.557 17.9467 183.344 17.52C183.13 17.0933 182.837 16.7467 182.464 16.48C182.09 16.16 181.637 16 181.104 16H180.704V15.2L188.784 15.2L217.824 60.96V20.16C217.824 19.7867 217.744 19.36 217.584 18.88C217.477 18.4 217.29 17.9467 217.024 17.52C216.81 17.0933 216.544 16.7467 216.224 16.48C215.904 16.16 215.53 16 215.104 16H214.704V15.2L223.664 15.2V16H223.264C222.837 16 222.464 16.16 222.144 16.48C221.824 16.7467 221.53 17.0933 221.264 17.52C221.05 17.9467 220.89 18.4 220.784 18.88C220.677 19.36 220.624 19.7867 220.624 20.16V68H215.664L186.704 22.08V62.8C186.704 63.2267 186.757 63.7067 186.864 64.24C186.97 64.72 187.13 65.1733 187.344 65.6C187.61 66.0267 187.904 66.4 188.224 66.72C188.544 67.04 188.917 67.2 189.344 67.2ZM258.138 14.4C262.298 14.4 266.031 15.1467 269.338 16.64C272.645 18.08 275.445 20.0533 277.738 22.56C280.085 25.0133 281.871 27.8933 283.098 31.2C284.378 34.4533 285.018 37.8667 285.018 41.44C285.018 45.44 284.271 49.12 282.778 52.48C281.338 55.84 279.338 58.72 276.778 61.12C274.218 63.52 271.231 65.4133 267.818 66.8C264.458 68.1333 260.858 68.8 257.018 68.8C252.911 68.8 249.205 68.0533 245.898 66.56C242.645 65.0667 239.871 63.0933 237.578 60.64C235.338 58.1867 233.605 55.36 232.378 52.16C231.151 48.96 230.538 45.6267 230.538 42.16C230.538 38.7467 231.151 35.3867 232.378 32.08C233.605 28.72 235.391 25.7333 237.738 23.12C240.138 20.5067 243.045 18.4 246.458 16.8C249.871 15.2 253.765 14.4 258.138 14.4ZM258.058 66C261.631 65.84 264.751 65.04 267.418 63.6C270.138 62.1067 272.405 60.24 274.218 58C276.031 55.7067 277.365 53.2 278.218 50.48C279.125 47.76 279.578 45.0667 279.578 42.4C279.578 39.4667 279.045 36.5067 277.978 33.52C276.911 30.5333 275.391 27.84 273.418 25.44C271.445 22.9867 269.071 21.0133 266.298 19.52C263.578 17.9733 260.511 17.2 257.098 17.2C253.791 17.2 250.831 17.9467 248.218 19.44C245.605 20.88 243.365 22.7467 241.498 25.04C239.685 27.3333 238.298 29.8933 237.338 32.72C236.378 35.5467 235.898 38.32 235.898 41.04C235.898 43.9733 236.458 46.9333 237.578 49.92C238.698 52.8533 240.245 55.52 242.218 57.92C244.191 60.32 246.511 62.2667 249.178 63.76C251.898 65.2533 254.858 66 258.058 66Z" fill="#176AA6"/>
<path d="M33.2865 99.12C32.2465 99.12 31.2465 98.9533 30.2865 98.62C29.3398 98.2867 28.6065 97.8467 28.0865 97.3L28.6665 96.16C29.1732 96.6667 29.8465 97.08 30.6865 97.4C31.5265 97.7067 32.3932 97.86 33.2865 97.86C34.5398 97.86 35.4798 97.6333 36.1065 97.18C36.7332 96.7133 37.0465 96.1133 37.0465 95.38C37.0465 94.82 36.8732 94.3733 36.5265 94.04C36.1932 93.7067 35.7798 93.4533 35.2865 93.28C34.7932 93.0933 34.1065 92.8933 33.2265 92.68C32.1732 92.4133 31.3332 92.16 30.7065 91.92C30.0798 91.6667 29.5398 91.2867 29.0865 90.78C28.6465 90.2733 28.4265 89.5867 28.4265 88.72C28.4265 88.0133 28.6132 87.3733 28.9865 86.8C29.3598 86.2133 29.9332 85.7467 30.7065 85.4C31.4798 85.0533 32.4398 84.88 33.5865 84.88C34.3865 84.88 35.1665 84.9933 35.9265 85.22C36.6998 85.4333 37.3665 85.7333 37.9265 86.12L37.4265 87.3C36.8398 86.9133 36.2132 86.6267 35.5465 86.44C34.8798 86.24 34.2265 86.14 33.5865 86.14C32.3598 86.14 31.4332 86.38 30.8065 86.86C30.1932 87.3267 29.8865 87.9333 29.8865 88.68C29.8865 89.24 30.0532 89.6933 30.3865 90.04C30.7332 90.3733 31.1598 90.6333 31.6665 90.82C32.1865 90.9933 32.8798 91.1867 33.7465 91.4C34.7732 91.6533 35.5998 91.9067 36.2265 92.16C36.8665 92.4 37.4065 92.7733 37.8465 93.28C38.2865 93.7733 38.5065 94.4467 38.5065 95.3C38.5065 96.0067 38.3132 96.6533 37.9265 97.24C37.5532 97.8133 36.9732 98.2733 36.1865 98.62C35.3998 98.9533 34.4332 99.12 33.2865 99.12ZM41.4312 88.48H42.8512V99H41.4312V88.48ZM42.1512 86.18C41.8578 86.18 41.6112 86.08 41.4112 85.88C41.2112 85.68 41.1112 85.44 41.1112 85.16C41.1112 84.8933 41.2112 84.66 41.4112 84.46C41.6112 84.26 41.8578 84.16 42.1512 84.16C42.4445 84.16 42.6912 84.26 42.8912 84.46C43.0912 84.6467 43.1912 84.8733 43.1912 85.14C43.1912 85.4333 43.0912 85.68 42.8912 85.88C42.6912 86.08 42.4445 86.18 42.1512 86.18ZM59.9223 88.4C61.2423 88.4 62.2756 88.78 63.0223 89.54C63.7823 90.3 64.1623 91.42 64.1623 92.9V99H62.7423V93.04C62.7423 91.9467 62.4756 91.1133 61.9423 90.54C61.4223 89.9667 60.6823 89.68 59.7223 89.68C58.6289 89.68 57.7689 90.02 57.1423 90.7C56.5156 91.3667 56.2023 92.2933 56.2023 93.48V99H54.7823V93.04C54.7823 91.9467 54.5156 91.1133 53.9823 90.54C53.4623 89.9667 52.7156 89.68 51.7423 89.68C50.6623 89.68 49.8023 90.02 49.1623 90.7C48.5356 91.3667 48.2223 92.2933 48.2223 93.48V99H46.8023V88.48H48.1623V90.4C48.5356 89.76 49.0556 89.2667 49.7223 88.92C50.3889 88.5733 51.1556 88.4 52.0223 88.4C52.9023 88.4 53.6623 88.5867 54.3023 88.96C54.9556 89.3333 55.4423 89.8867 55.7623 90.62C56.1489 89.9267 56.7023 89.3867 57.4223 89C58.1556 88.6 58.9889 88.4 59.9223 88.4ZM73.4332 88.4C74.4199 88.4 75.3132 88.6267 76.1132 89.08C76.9132 89.52 77.5399 90.1467 77.9932 90.96C78.4465 91.7733 78.6732 92.7 78.6732 93.74C78.6732 94.7933 78.4465 95.7267 77.9932 96.54C77.5399 97.3533 76.9132 97.9867 76.1132 98.44C75.3265 98.88 74.4332 99.1 73.4332 99.1C72.5799 99.1 71.8065 98.9267 71.1132 98.58C70.4332 98.22 69.8732 97.7 69.4332 97.02V102.88H68.0132V88.48H69.3732V90.56C69.7999 89.8667 70.3599 89.3333 71.0532 88.96C71.7599 88.5867 72.5532 88.4 73.4332 88.4ZM73.3332 97.84C74.0665 97.84 74.7332 97.6733 75.3332 97.34C75.9332 96.9933 76.3999 96.5067 76.7332 95.88C77.0799 95.2533 77.2532 94.54 77.2532 93.74C77.2532 92.94 77.0799 92.2333 76.7332 91.62C76.3999 90.9933 75.9332 90.5067 75.3332 90.16C74.7332 89.8133 74.0665 89.64 73.3332 89.64C72.5865 89.64 71.9132 89.8133 71.3132 90.16C70.7265 90.5067 70.2599 90.9933 69.9132 91.62C69.5799 92.2333 69.4132 92.94 69.4132 93.74C69.4132 94.54 69.5799 95.2533 69.9132 95.88C70.2599 96.5067 70.7265 96.9933 71.3132 97.34C71.9132 97.6733 72.5865 97.84 73.3332 97.84ZM81.5679 84.16H82.9879V99H81.5679V84.16ZM96.099 94.18H87.299C87.379 95.2733 87.799 96.16 88.559 96.84C89.319 97.5067 90.279 97.84 91.439 97.84C92.0923 97.84 92.6923 97.7267 93.239 97.5C93.7857 97.26 94.259 96.9133 94.659 96.46L95.459 97.38C94.9923 97.94 94.4057 98.3667 93.699 98.66C93.0057 98.9533 92.239 99.1 91.399 99.1C90.319 99.1 89.359 98.8733 88.519 98.42C87.6923 97.9533 87.0457 97.3133 86.579 96.5C86.1123 95.6867 85.879 94.7667 85.879 93.74C85.879 92.7133 86.099 91.7933 86.539 90.98C86.9923 90.1667 87.6057 89.5333 88.379 89.08C89.1657 88.6267 90.0457 88.4 91.019 88.4C91.9923 88.4 92.8657 88.6267 93.639 89.08C94.4123 89.5333 95.019 90.1667 95.459 90.98C95.899 91.78 96.119 92.7 96.119 93.74L96.099 94.18ZM91.019 89.62C90.0057 89.62 89.1523 89.9467 88.459 90.6C87.779 91.24 87.3923 92.08 87.299 93.12H94.759C94.6657 92.08 94.2723 91.24 93.579 90.6C92.899 89.9467 92.0457 89.62 91.019 89.62ZM109.784 85C111.57 85 112.97 85.4267 113.984 86.28C114.997 87.1333 115.504 88.3067 115.504 89.8C115.504 91.2933 114.997 92.4667 113.984 93.32C112.97 94.16 111.57 94.58 109.784 94.58H106.024V99H104.544V85H109.784ZM109.744 93.28C111.13 93.28 112.19 92.98 112.924 92.38C113.657 91.7667 114.024 90.9067 114.024 89.8C114.024 88.6667 113.657 87.8 112.924 87.2C112.19 86.5867 111.13 86.28 109.744 86.28H106.024V93.28H109.744ZM121.986 88.4C123.36 88.4 124.413 88.7467 125.146 89.44C125.88 90.12 126.246 91.1333 126.246 92.48V99H124.886V97.36C124.566 97.9067 124.093 98.3333 123.466 98.64C122.853 98.9467 122.12 99.1 121.266 99.1C120.093 99.1 119.16 98.82 118.466 98.26C117.773 97.7 117.426 96.96 117.426 96.04C117.426 95.1467 117.746 94.4267 118.386 93.88C119.04 93.3333 120.073 93.06 121.486 93.06H124.826V92.42C124.826 91.5133 124.573 90.8267 124.066 90.36C123.56 89.88 122.82 89.64 121.846 89.64C121.18 89.64 120.54 89.7533 119.926 89.98C119.313 90.1933 118.786 90.4933 118.346 90.88L117.706 89.82C118.24 89.3667 118.88 89.02 119.626 88.78C120.373 88.5267 121.16 88.4 121.986 88.4ZM121.486 97.98C122.286 97.98 122.973 97.8 123.546 97.44C124.12 97.0667 124.546 96.5333 124.826 95.84V94.12H121.526C119.726 94.12 118.826 94.7467 118.826 96C118.826 96.6133 119.06 97.1 119.526 97.46C119.993 97.8067 120.646 97.98 121.486 97.98ZM135.643 98.36C135.376 98.6 135.043 98.7867 134.643 98.92C134.256 99.04 133.85 99.1 133.423 99.1C132.436 99.1 131.676 98.8333 131.143 98.3C130.61 97.7667 130.343 97.0133 130.343 96.04V89.68H128.463V88.48H130.343V86.18H131.763V88.48H134.963V89.68H131.763V95.96C131.763 96.5867 131.916 97.0667 132.223 97.4C132.543 97.72 132.996 97.88 133.583 97.88C133.876 97.88 134.156 97.8333 134.423 97.74C134.703 97.6467 134.943 97.5133 135.143 97.34L135.643 98.36ZM138.228 88.48H139.648V99H138.228V88.48ZM138.948 86.18C138.655 86.18 138.408 86.08 138.208 85.88C138.008 85.68 137.908 85.44 137.908 85.16C137.908 84.8933 138.008 84.66 138.208 84.46C138.408 84.26 138.655 84.16 138.948 84.16C139.241 84.16 139.488 84.26 139.688 84.46C139.888 84.6467 139.988 84.8733 139.988 85.14C139.988 85.4333 139.888 85.68 139.688 85.88C139.488 86.08 139.241 86.18 138.948 86.18ZM152.759 94.18H143.959C144.039 95.2733 144.459 96.16 145.219 96.84C145.979 97.5067 146.939 97.84 148.099 97.84C148.752 97.84 149.352 97.7267 149.899 97.5C150.446 97.26 150.919 96.9133 151.319 96.46L152.119 97.38C151.652 97.94 151.066 98.3667 150.359 98.66C149.666 98.9533 148.899 99.1 148.059 99.1C146.979 99.1 146.019 98.8733 145.179 98.42C144.352 97.9533 143.706 97.3133 143.239 96.5C142.772 95.6867 142.539 94.7667 142.539 93.74C142.539 92.7133 142.759 91.7933 143.199 90.98C143.652 90.1667 144.266 89.5333 145.039 89.08C145.826 88.6267 146.706 88.4 147.679 88.4C148.652 88.4 149.526 88.6267 150.299 89.08C151.072 89.5333 151.679 90.1667 152.119 90.98C152.559 91.78 152.779 92.7 152.779 93.74L152.759 94.18ZM147.679 89.62C146.666 89.62 145.812 89.9467 145.119 90.6C144.439 91.24 144.052 92.08 143.959 93.12H151.419C151.326 92.08 150.932 91.24 150.239 90.6C149.559 89.9467 148.706 89.62 147.679 89.62ZM161.029 88.4C162.349 88.4 163.396 88.7867 164.169 89.56C164.956 90.32 165.349 91.4333 165.349 92.9V99H163.929V93.04C163.929 91.9467 163.656 91.1133 163.109 90.54C162.563 89.9667 161.783 89.68 160.769 89.68C159.636 89.68 158.736 90.02 158.069 90.7C157.416 91.3667 157.089 92.2933 157.089 93.48V99H155.669V88.48H157.029V90.42C157.416 89.78 157.949 89.2867 158.629 88.94C159.323 88.58 160.123 88.4 161.029 88.4ZM174.745 98.36C174.478 98.6 174.145 98.7867 173.745 98.92C173.358 99.04 172.951 99.1 172.525 99.1C171.538 99.1 170.778 98.8333 170.245 98.3C169.711 97.7667 169.445 97.0133 169.445 96.04V89.68H167.565V88.48H169.445V86.18H170.865V88.48H174.065V89.68H170.865V95.96C170.865 96.5867 171.018 97.0667 171.325 97.4C171.645 97.72 172.098 97.88 172.685 97.88C172.978 97.88 173.258 97.8333 173.525 97.74C173.805 97.6467 174.045 97.5133 174.245 97.34L174.745 98.36ZM192.424 99L189.224 94.5C188.864 94.54 188.491 94.56 188.104 94.56H184.344V99H182.864V85H188.104C189.891 85 191.291 85.4267 192.304 86.28C193.317 87.1333 193.824 88.3067 193.824 89.8C193.824 90.8933 193.544 91.82 192.984 92.58C192.437 93.3267 191.651 93.8667 190.624 94.2L194.044 99H192.424ZM188.064 93.3C189.451 93.3 190.511 92.9933 191.244 92.38C191.977 91.7667 192.344 90.9067 192.344 89.8C192.344 88.6667 191.977 87.8 191.244 87.2C190.511 86.5867 189.451 86.28 188.064 86.28H184.344V93.3H188.064ZM206.177 94.18H197.377C197.457 95.2733 197.877 96.16 198.637 96.84C199.397 97.5067 200.357 97.84 201.517 97.84C202.17 97.84 202.77 97.7267 203.317 97.5C203.864 97.26 204.337 96.9133 204.737 96.46L205.537 97.38C205.07 97.94 204.484 98.3667 203.777 98.66C203.084 98.9533 202.317 99.1 201.477 99.1C200.397 99.1 199.437 98.8733 198.597 98.42C197.77 97.9533 197.124 97.3133 196.657 96.5C196.19 95.6867 195.957 94.7667 195.957 93.74C195.957 92.7133 196.177 91.7933 196.617 90.98C197.07 90.1667 197.684 89.5333 198.457 89.08C199.244 88.6267 200.124 88.4 201.097 88.4C202.07 88.4 202.944 88.6267 203.717 89.08C204.49 89.5333 205.097 90.1667 205.537 90.98C205.977 91.78 206.197 92.7 206.197 93.74L206.177 94.18ZM201.097 89.62C200.084 89.62 199.23 89.9467 198.537 90.6C197.857 91.24 197.47 92.08 197.377 93.12H204.837C204.744 92.08 204.35 91.24 203.657 90.6C202.977 89.9467 202.124 89.62 201.097 89.62ZM213.447 99.1C212.407 99.1 211.474 98.8733 210.647 98.42C209.834 97.9667 209.194 97.3333 208.727 96.52C208.261 95.6933 208.027 94.7667 208.027 93.74C208.027 92.7133 208.261 91.7933 208.727 90.98C209.194 90.1667 209.834 89.5333 210.647 89.08C211.474 88.6267 212.407 88.4 213.447 88.4C214.354 88.4 215.161 88.58 215.867 88.94C216.587 89.2867 217.154 89.8 217.567 90.48L216.507 91.2C216.161 90.68 215.721 90.2933 215.187 90.04C214.654 89.7733 214.074 89.64 213.447 89.64C212.687 89.64 212.001 89.8133 211.387 90.16C210.787 90.4933 210.314 90.9733 209.967 91.6C209.634 92.2267 209.467 92.94 209.467 93.74C209.467 94.5533 209.634 95.2733 209.967 95.9C210.314 96.5133 210.787 96.9933 211.387 97.34C212.001 97.6733 212.687 97.84 213.447 97.84C214.074 97.84 214.654 97.7133 215.187 97.46C215.721 97.2067 216.161 96.82 216.507 96.3L217.567 97.02C217.154 97.7 216.587 98.22 215.867 98.58C215.147 98.9267 214.341 99.1 213.447 99.1ZM224.481 99.1C223.468 99.1 222.555 98.8733 221.741 98.42C220.928 97.9533 220.288 97.3133 219.821 96.5C219.355 95.6867 219.121 94.7667 219.121 93.74C219.121 92.7133 219.355 91.7933 219.821 90.98C220.288 90.1667 220.928 89.5333 221.741 89.08C222.555 88.6267 223.468 88.4 224.481 88.4C225.495 88.4 226.408 88.6267 227.221 89.08C228.035 89.5333 228.668 90.1667 229.121 90.98C229.588 91.7933 229.821 92.7133 229.821 93.74C229.821 94.7667 229.588 95.6867 229.121 96.5C228.668 97.3133 228.035 97.9533 227.221 98.42C226.408 98.8733 225.495 99.1 224.481 99.1ZM224.481 97.84C225.228 97.84 225.895 97.6733 226.481 97.34C227.081 96.9933 227.548 96.5067 227.881 95.88C228.215 95.2533 228.381 94.54 228.381 93.74C228.381 92.94 228.215 92.2267 227.881 91.6C227.548 90.9733 227.081 90.4933 226.481 90.16C225.895 89.8133 225.228 89.64 224.481 89.64C223.735 89.64 223.061 89.8133 222.461 90.16C221.875 90.4933 221.408 90.9733 221.061 91.6C220.728 92.2267 220.561 92.94 220.561 93.74C220.561 94.54 220.728 95.2533 221.061 95.88C221.408 96.5067 221.875 96.9933 222.461 97.34C223.061 97.6733 223.735 97.84 224.481 97.84ZM234.08 90.54C234.414 89.8333 234.907 89.3 235.56 88.94C236.227 88.58 237.047 88.4 238.02 88.4V89.78L237.68 89.76C236.574 89.76 235.707 90.1 235.08 90.78C234.454 91.46 234.14 92.4133 234.14 93.64V99H232.72V88.48H234.08V90.54ZM250.094 84.16V99H248.734V96.92C248.307 97.6267 247.74 98.1667 247.034 98.54C246.34 98.9133 245.554 99.1 244.674 99.1C243.687 99.1 242.794 98.8733 241.994 98.42C241.194 97.9667 240.567 97.3333 240.114 96.52C239.66 95.7067 239.434 94.78 239.434 93.74C239.434 92.7 239.66 91.7733 240.114 90.96C240.567 90.1467 241.194 89.52 241.994 89.08C242.794 88.6267 243.687 88.4 244.674 88.4C245.527 88.4 246.294 88.58 246.974 88.94C247.667 89.2867 248.234 89.8 248.674 90.48V84.16H250.094ZM244.794 97.84C245.527 97.84 246.187 97.6733 246.774 97.34C247.374 96.9933 247.84 96.5067 248.174 95.88C248.52 95.2533 248.694 94.54 248.694 93.74C248.694 92.94 248.52 92.2267 248.174 91.6C247.84 90.9733 247.374 90.4933 246.774 90.16C246.187 89.8133 245.527 89.64 244.794 89.64C244.047 89.64 243.374 89.8133 242.774 90.16C242.187 90.4933 241.72 90.9733 241.374 91.6C241.04 92.2267 240.874 92.94 240.874 93.74C240.874 94.54 241.04 95.2533 241.374 95.88C241.72 96.5067 242.187 96.9933 242.774 97.34C243.374 97.6733 244.047 97.84 244.794 97.84ZM256.868 99.1C256.015 99.1 255.195 98.98 254.408 98.74C253.635 98.4867 253.028 98.1733 252.588 97.8L253.228 96.68C253.668 97.0267 254.222 97.3133 254.888 97.54C255.555 97.7533 256.248 97.86 256.968 97.86C257.928 97.86 258.635 97.7133 259.088 97.42C259.555 97.1133 259.788 96.6867 259.788 96.14C259.788 95.7533 259.662 95.4533 259.408 95.24C259.155 95.0133 258.835 94.8467 258.448 94.74C258.062 94.62 257.548 94.5067 256.908 94.4C256.055 94.24 255.368 94.08 254.848 93.92C254.328 93.7467 253.882 93.46 253.508 93.06C253.148 92.66 252.968 92.1067 252.968 91.4C252.968 90.52 253.335 89.8 254.068 89.24C254.802 88.68 255.822 88.4 257.128 88.4C257.808 88.4 258.488 88.4933 259.168 88.68C259.848 88.8533 260.408 89.0867 260.848 89.38L260.228 90.52C259.362 89.92 258.328 89.62 257.128 89.62C256.222 89.62 255.535 89.78 255.068 90.1C254.615 90.42 254.388 90.84 254.388 91.36C254.388 91.76 254.515 92.08 254.768 92.32C255.035 92.56 255.362 92.74 255.748 92.86C256.135 92.9667 256.668 93.08 257.348 93.2C258.188 93.36 258.862 93.52 259.368 93.68C259.875 93.84 260.308 94.1133 260.668 94.5C261.028 94.8867 261.208 95.42 261.208 96.1C261.208 97.02 260.822 97.7533 260.048 98.3C259.288 98.8333 258.228 99.1 256.868 99.1Z" fill="#828282"/>
</svg>
