<svg width="330" height="201" viewBox="0 0 330 201" fill="none" xmlns="http://www.w3.org/2000/svg">
<path d="M59.5625 97.16H71.0025V97.96H70.6025C70.1758 97.96 69.8025 98.12 69.4825 98.44C69.1625 98.7067 68.8958 99.0533 68.6825 99.48C68.4692 99.9067 68.2825 100.36 68.1225 100.84C68.0158 101.32 67.9625 101.747 67.9625 102.12L67.9625 123.56C67.0025 123.933 65.9092 124.253 64.6825 124.52C63.4558 124.787 62.1758 125 60.8425 125.16C59.5092 125.373 58.1492 125.533 56.7625 125.64C55.3758 125.747 54.0958 125.8 52.9225 125.8C48.1225 125.8 43.9358 125 40.3625 123.4C36.7892 121.8 33.8292 119.72 31.4825 117.16C29.1358 114.547 27.3758 111.613 26.2025 108.36C25.0825 105.107 24.5225 101.827 24.5225 98.52C24.5225 95.2133 25.0825 91.9333 26.2025 88.68C27.3758 85.4267 29.1358 82.52 31.4825 79.96C33.8825 77.4 36.8692 75.3467 40.4425 73.8C44.0692 72.2 48.3625 71.4 53.3225 71.4C55.1892 71.4 56.9225 71.56 58.5225 71.88C60.1225 72.2 61.5358 72.4933 62.7625 72.76C63.4558 72.92 64.0425 73.08 64.5225 73.24C65.0558 73.3467 65.5092 73.4 65.8825 73.4H66.6025V81.88H65.8025C65.4825 80.2267 64.8425 78.8933 63.8825 77.88C62.9758 76.8667 61.9092 76.0933 60.6825 75.56C59.4558 75.0267 58.1492 74.68 56.7625 74.52C55.4292 74.3067 54.1758 74.2 53.0025 74.2C49.0025 74.2 45.5358 74.92 42.6025 76.36C39.6692 77.7467 37.2692 79.56 35.4025 81.8C33.5358 84.04 32.1492 86.5733 31.2425 89.4C30.3358 92.1733 29.8825 94.9467 29.8825 97.72C29.8825 100.813 30.4692 103.88 31.6425 106.92C32.8158 109.907 34.4692 112.6 36.6025 115C38.7358 117.347 41.2958 119.267 44.2825 120.76C47.3225 122.2 50.6825 122.92 54.3625 122.92C55.3758 122.92 56.6292 122.813 58.1225 122.6C59.6158 122.333 61.1092 121.773 62.6025 120.92V102.12C62.6025 101.747 62.5492 101.32 62.4425 100.84C62.3358 100.36 62.1492 99.9067 61.8825 99.48C61.6692 99.0533 61.4025 98.7067 61.0825 98.44C60.7625 98.12 60.3892 97.96 59.9625 97.96H59.5625V97.16ZM108.301 124.2H108.701C109.981 124.2 110.621 123.613 110.621 122.44C110.621 122.013 110.541 121.56 110.381 121.08L103.181 101.64H89.1806L82.2206 120.76C82.0606 121.187 81.9806 121.587 81.9806 121.96C81.9806 122.653 82.1673 123.213 82.5406 123.64C82.914 124.013 83.314 124.2 83.7406 124.2H84.1406V125H75.2606V124.2H75.6606C76.354 124.2 77.0206 123.8 77.6606 123C78.354 122.147 78.914 121.16 79.3406 120.04L97.6606 71.24L115.581 119.56C115.954 120.627 116.461 121.667 117.101 122.68C117.794 123.693 118.674 124.2 119.741 124.2H120.141V125L108.301 125V124.2ZM89.9806 98.92H102.301L96.1406 82.2L89.9806 98.92ZM124.928 124.2H125.328C125.755 124.2 126.128 124.067 126.448 123.8C126.768 123.48 127.035 123.107 127.248 122.68C127.515 122.253 127.701 121.8 127.808 121.32C127.968 120.84 128.048 120.387 128.048 119.96V77.16C128.048 76.7867 127.968 76.36 127.808 75.88C127.701 75.4 127.515 74.9467 127.248 74.52C127.035 74.0933 126.768 73.7467 126.448 73.48C126.128 73.16 125.755 73 125.328 73H124.928V72.2H136.448V73H136.048C135.621 73 135.248 73.16 134.928 73.48C134.608 73.7467 134.341 74.0933 134.128 74.52C133.915 74.9467 133.728 75.4 133.568 75.88C133.461 76.36 133.408 76.7867 133.408 77.16V122.04H150.928C151.941 122.04 152.821 121.8 153.568 121.32C154.315 120.84 154.928 120.253 155.408 119.56C155.941 118.813 156.315 118.04 156.528 117.24C156.795 116.387 156.928 115.613 156.928 114.92H157.728V125H124.928V124.2ZM162.116 124.2H162.516C162.942 124.2 163.316 124.067 163.636 123.8C163.956 123.48 164.222 123.107 164.436 122.68C164.702 122.253 164.889 121.8 164.996 121.32C165.156 120.84 165.236 120.387 165.236 119.96V77.16C165.236 76.7867 165.156 76.36 164.996 75.88C164.889 75.4 164.702 74.9467 164.436 74.52C164.222 74.0933 163.956 73.7467 163.636 73.48C163.316 73.16 162.942 73 162.516 73H162.116V72.2H192.916V79.64H192.116C192.009 78.4133 191.529 77.3467 190.676 76.44C189.822 75.48 188.489 75 186.676 75H170.596V95.24H183.876C185.102 95.24 186.116 94.8667 186.916 94.12C187.769 93.3733 188.196 92.4933 188.196 91.48H188.996V101.48H188.196C188.196 100.52 187.796 99.6933 186.996 99C186.196 98.3067 185.156 97.96 183.876 97.96H170.596V122.2H188.116C189.129 122.2 190.009 121.96 190.756 121.48C191.502 121 192.116 120.44 192.596 119.8C193.129 119.107 193.502 118.387 193.716 117.64C193.982 116.84 194.116 116.173 194.116 115.64H194.916V125H162.116V124.2ZM209.344 124.2H209.744V125H200.864V124.2H201.264C201.637 124.2 201.984 124.04 202.304 123.72C202.677 123.4 202.97 123.027 203.184 122.6C203.397 122.173 203.557 121.72 203.664 121.24C203.824 120.707 203.904 120.227 203.904 119.8V77.16C203.904 76.7867 203.85 76.36 203.744 75.88C203.69 75.4 203.557 74.9467 203.344 74.52C203.13 74.0933 202.837 73.7467 202.464 73.48C202.09 73.16 201.637 73 201.104 73H200.704V72.2H208.784L237.824 117.96V77.16C237.824 76.7867 237.744 76.36 237.584 75.88C237.477 75.4 237.29 74.9467 237.024 74.52C236.81 74.0933 236.544 73.7467 236.224 73.48C235.904 73.16 235.53 73 235.104 73H234.704V72.2H243.664V73H243.264C242.837 73 242.464 73.16 242.144 73.48C241.824 73.7467 241.53 74.0933 241.264 74.52C241.05 74.9467 240.89 75.4 240.784 75.88C240.677 76.36 240.624 76.7867 240.624 77.16V125H235.664L206.704 79.08V119.8C206.704 120.227 206.757 120.707 206.864 121.24C206.97 121.72 207.13 122.173 207.344 122.6C207.61 123.027 207.904 123.4 208.224 123.72C208.544 124.04 208.917 124.2 209.344 124.2ZM278.138 71.4C282.298 71.4 286.031 72.1467 289.338 73.64C292.645 75.08 295.445 77.0533 297.738 79.56C300.085 82.0133 301.871 84.8933 303.098 88.2C304.378 91.4533 305.018 94.8667 305.018 98.44C305.018 102.44 304.271 106.12 302.778 109.48C301.338 112.84 299.338 115.72 296.778 118.12C294.218 120.52 291.231 122.413 287.818 123.8C284.458 125.133 280.858 125.8 277.018 125.8C272.911 125.8 269.205 125.053 265.898 123.56C262.645 122.067 259.871 120.093 257.578 117.64C255.338 115.187 253.605 112.36 252.378 109.16C251.151 105.96 250.538 102.627 250.538 99.16C250.538 95.7467 251.151 92.3867 252.378 89.08C253.605 85.72 255.391 82.7333 257.738 80.12C260.138 77.5067 263.045 75.4 266.458 73.8C269.871 72.2 273.765 71.4 278.138 71.4ZM278.058 123C281.631 122.84 284.751 122.04 287.418 120.6C290.138 119.107 292.405 117.24 294.218 115C296.031 112.707 297.365 110.2 298.218 107.48C299.125 104.76 299.578 102.067 299.578 99.4C299.578 96.4667 299.045 93.5067 297.978 90.52C296.911 87.5333 295.391 84.84 293.418 82.44C291.445 79.9867 289.071 78.0133 286.298 76.52C283.578 74.9733 280.511 74.2 277.098 74.2C273.791 74.2 270.831 74.9467 268.218 76.44C265.605 77.88 263.365 79.7467 261.498 82.04C259.685 84.3333 258.298 86.8933 257.338 89.72C256.378 92.5467 255.898 95.32 255.898 98.04C255.898 100.973 256.458 103.933 257.578 106.92C258.698 109.853 260.245 112.52 262.218 114.92C264.191 117.32 266.511 119.267 269.178 120.76C271.898 122.253 274.858 123 278.058 123Z" fill="#176AA6"/>
<path d="M53.7865 160.12C52.7465 160.12 51.7465 159.953 50.7865 159.62C49.8398 159.287 49.1065 158.847 48.5865 158.3L49.1665 157.16C49.6732 157.667 50.3465 158.08 51.1865 158.4C52.0265 158.707 52.8932 158.86 53.7865 158.86C55.0398 158.86 55.9798 158.633 56.6065 158.18C57.2332 157.713 57.5465 157.113 57.5465 156.38C57.5465 155.82 57.3732 155.373 57.0265 155.04C56.6932 154.707 56.2798 154.453 55.7865 154.28C55.2932 154.093 54.6065 153.893 53.7265 153.68C52.6732 153.413 51.8332 153.16 51.2065 152.92C50.5798 152.667 50.0398 152.287 49.5865 151.78C49.1465 151.273 48.9265 150.587 48.9265 149.72C48.9265 149.013 49.1132 148.373 49.4865 147.8C49.8598 147.213 50.4332 146.747 51.2065 146.4C51.9798 146.053 52.9398 145.88 54.0865 145.88C54.8865 145.88 55.6665 145.993 56.4265 146.22C57.1998 146.433 57.8665 146.733 58.4265 147.12L57.9265 148.3C57.3398 147.913 56.7132 147.627 56.0465 147.44C55.3798 147.24 54.7265 147.14 54.0865 147.14C52.8598 147.14 51.9332 147.38 51.3065 147.86C50.6932 148.327 50.3865 148.933 50.3865 149.68C50.3865 150.24 50.5532 150.693 50.8865 151.04C51.2332 151.373 51.6598 151.633 52.1665 151.82C52.6865 151.993 53.3798 152.187 54.2465 152.4C55.2732 152.653 56.0998 152.907 56.7265 153.16C57.3665 153.4 57.9065 153.773 58.3465 154.28C58.7865 154.773 59.0065 155.447 59.0065 156.3C59.0065 157.007 58.8132 157.653 58.4265 158.24C58.0532 158.813 57.4732 159.273 56.6865 159.62C55.8998 159.953 54.9332 160.12 53.7865 160.12ZM61.9312 149.48H63.3512V160H61.9312V149.48ZM62.6512 147.18C62.3578 147.18 62.1112 147.08 61.9112 146.88C61.7112 146.68 61.6112 146.44 61.6112 146.16C61.6112 145.893 61.7112 145.66 61.9112 145.46C62.1112 145.26 62.3578 145.16 62.6512 145.16C62.9445 145.16 63.1912 145.26 63.3912 145.46C63.5912 145.647 63.6912 145.873 63.6912 146.14C63.6912 146.433 63.5912 146.68 63.3912 146.88C63.1912 147.08 62.9445 147.18 62.6512 147.18ZM80.4223 149.4C81.7423 149.4 82.7756 149.78 83.5223 150.54C84.2823 151.3 84.6623 152.42 84.6623 153.9V160H83.2423V154.04C83.2423 152.947 82.9756 152.113 82.4423 151.54C81.9223 150.967 81.1823 150.68 80.2223 150.68C79.1289 150.68 78.2689 151.02 77.6423 151.7C77.0156 152.367 76.7023 153.293 76.7023 154.48V160H75.2823V154.04C75.2823 152.947 75.0156 152.113 74.4823 151.54C73.9623 150.967 73.2156 150.68 72.2423 150.68C71.1623 150.68 70.3023 151.02 69.6623 151.7C69.0356 152.367 68.7223 153.293 68.7223 154.48V160H67.3023V149.48H68.6623V151.4C69.0356 150.76 69.5556 150.267 70.2223 149.92C70.8889 149.573 71.6556 149.4 72.5223 149.4C73.4023 149.4 74.1623 149.587 74.8023 149.96C75.4556 150.333 75.9423 150.887 76.2623 151.62C76.6489 150.927 77.2023 150.387 77.9223 150C78.6556 149.6 79.4889 149.4 80.4223 149.4ZM93.9332 149.4C94.9199 149.4 95.8132 149.627 96.6132 150.08C97.4132 150.52 98.0399 151.147 98.4932 151.96C98.9465 152.773 99.1732 153.7 99.1732 154.74C99.1732 155.793 98.9465 156.727 98.4932 157.54C98.0399 158.353 97.4132 158.987 96.6132 159.44C95.8265 159.88 94.9332 160.1 93.9332 160.1C93.0799 160.1 92.3065 159.927 91.6132 159.58C90.9332 159.22 90.3732 158.7 89.9332 158.02V163.88H88.5132V149.48H89.8732V151.56C90.2999 150.867 90.8599 150.333 91.5532 149.96C92.2599 149.587 93.0532 149.4 93.9332 149.4ZM93.8332 158.84C94.5665 158.84 95.2332 158.673 95.8332 158.34C96.4332 157.993 96.8999 157.507 97.2332 156.88C97.5799 156.253 97.7532 155.54 97.7532 154.74C97.7532 153.94 97.5799 153.233 97.2332 152.62C96.8999 151.993 96.4332 151.507 95.8332 151.16C95.2332 150.813 94.5665 150.64 93.8332 150.64C93.0865 150.64 92.4132 150.813 91.8132 151.16C91.2265 151.507 90.7599 151.993 90.4132 152.62C90.0799 153.233 89.9132 153.94 89.9132 154.74C89.9132 155.54 90.0799 156.253 90.4132 156.88C90.7599 157.507 91.2265 157.993 91.8132 158.34C92.4132 158.673 93.0865 158.84 93.8332 158.84ZM102.068 145.16H103.488V160H102.068V145.16ZM116.599 155.18H107.799C107.879 156.273 108.299 157.16 109.059 157.84C109.819 158.507 110.779 158.84 111.939 158.84C112.592 158.84 113.192 158.727 113.739 158.5C114.286 158.26 114.759 157.913 115.159 157.46L115.959 158.38C115.492 158.94 114.906 159.367 114.199 159.66C113.506 159.953 112.739 160.1 111.899 160.1C110.819 160.1 109.859 159.873 109.019 159.42C108.192 158.953 107.546 158.313 107.079 157.5C106.612 156.687 106.379 155.767 106.379 154.74C106.379 153.713 106.599 152.793 107.039 151.98C107.492 151.167 108.106 150.533 108.879 150.08C109.666 149.627 110.546 149.4 111.519 149.4C112.492 149.4 113.366 149.627 114.139 150.08C114.912 150.533 115.519 151.167 115.959 151.98C116.399 152.78 116.619 153.7 116.619 154.74L116.599 155.18ZM111.519 150.62C110.506 150.62 109.652 150.947 108.959 151.6C108.279 152.24 107.892 153.08 107.799 154.12H115.259C115.166 153.08 114.772 152.24 114.079 151.6C113.399 150.947 112.546 150.62 111.519 150.62ZM130.284 146C132.07 146 133.47 146.427 134.484 147.28C135.497 148.133 136.004 149.307 136.004 150.8C136.004 152.293 135.497 153.467 134.484 154.32C133.47 155.16 132.07 155.58 130.284 155.58H126.524V160H125.044V146H130.284ZM130.244 154.28C131.63 154.28 132.69 153.98 133.424 153.38C134.157 152.767 134.524 151.907 134.524 150.8C134.524 149.667 134.157 148.8 133.424 148.2C132.69 147.587 131.63 147.28 130.244 147.28H126.524V154.28H130.244ZM142.486 149.4C143.86 149.4 144.913 149.747 145.646 150.44C146.38 151.12 146.746 152.133 146.746 153.48V160H145.386V158.36C145.066 158.907 144.593 159.333 143.966 159.64C143.353 159.947 142.62 160.1 141.766 160.1C140.593 160.1 139.66 159.82 138.966 159.26C138.273 158.7 137.926 157.96 137.926 157.04C137.926 156.147 138.246 155.427 138.886 154.88C139.54 154.333 140.573 154.06 141.986 154.06H145.326V153.42C145.326 152.513 145.073 151.827 144.566 151.36C144.06 150.88 143.32 150.64 142.346 150.64C141.68 150.64 141.04 150.753 140.426 150.98C139.813 151.193 139.286 151.493 138.846 151.88L138.206 150.82C138.74 150.367 139.38 150.02 140.126 149.78C140.873 149.527 141.66 149.4 142.486 149.4ZM141.986 158.98C142.786 158.98 143.473 158.8 144.046 158.44C144.62 158.067 145.046 157.533 145.326 156.84V155.12H142.026C140.226 155.12 139.326 155.747 139.326 157C139.326 157.613 139.56 158.1 140.026 158.46C140.493 158.807 141.146 158.98 141.986 158.98ZM156.143 159.36C155.876 159.6 155.543 159.787 155.143 159.92C154.756 160.04 154.35 160.1 153.923 160.1C152.936 160.1 152.176 159.833 151.643 159.3C151.11 158.767 150.843 158.013 150.843 157.04V150.68H148.963V149.48H150.843V147.18H152.263V149.48H155.463V150.68H152.263V156.96C152.263 157.587 152.416 158.067 152.723 158.4C153.043 158.72 153.496 158.88 154.083 158.88C154.376 158.88 154.656 158.833 154.923 158.74C155.203 158.647 155.443 158.513 155.643 158.34L156.143 159.36ZM158.728 149.48H160.148V160H158.728V149.48ZM159.448 147.18C159.155 147.18 158.908 147.08 158.708 146.88C158.508 146.68 158.408 146.44 158.408 146.16C158.408 145.893 158.508 145.66 158.708 145.46C158.908 145.26 159.155 145.16 159.448 145.16C159.741 145.16 159.988 145.26 160.188 145.46C160.388 145.647 160.488 145.873 160.488 146.14C160.488 146.433 160.388 146.68 160.188 146.88C159.988 147.08 159.741 147.18 159.448 147.18ZM173.259 155.18H164.459C164.539 156.273 164.959 157.16 165.719 157.84C166.479 158.507 167.439 158.84 168.599 158.84C169.252 158.84 169.852 158.727 170.399 158.5C170.946 158.26 171.419 157.913 171.819 157.46L172.619 158.38C172.152 158.94 171.566 159.367 170.859 159.66C170.166 159.953 169.399 160.1 168.559 160.1C167.479 160.1 166.519 159.873 165.679 159.42C164.852 158.953 164.206 158.313 163.739 157.5C163.272 156.687 163.039 155.767 163.039 154.74C163.039 153.713 163.259 152.793 163.699 151.98C164.152 151.167 164.766 150.533 165.539 150.08C166.326 149.627 167.206 149.4 168.179 149.4C169.152 149.4 170.026 149.627 170.799 150.08C171.572 150.533 172.179 151.167 172.619 151.98C173.059 152.78 173.279 153.7 173.279 154.74L173.259 155.18ZM168.179 150.62C167.166 150.62 166.312 150.947 165.619 151.6C164.939 152.24 164.552 153.08 164.459 154.12H171.919C171.826 153.08 171.432 152.24 170.739 151.6C170.059 150.947 169.206 150.62 168.179 150.62ZM181.529 149.4C182.849 149.4 183.896 149.787 184.669 150.56C185.456 151.32 185.849 152.433 185.849 153.9V160H184.429V154.04C184.429 152.947 184.156 152.113 183.609 151.54C183.063 150.967 182.283 150.68 181.269 150.68C180.136 150.68 179.236 151.02 178.569 151.7C177.916 152.367 177.589 153.293 177.589 154.48V160H176.169V149.48H177.529V151.42C177.916 150.78 178.449 150.287 179.129 149.94C179.823 149.58 180.623 149.4 181.529 149.4ZM195.245 159.36C194.978 159.6 194.645 159.787 194.245 159.92C193.858 160.04 193.451 160.1 193.025 160.1C192.038 160.1 191.278 159.833 190.745 159.3C190.211 158.767 189.945 158.013 189.945 157.04V150.68H188.065V149.48H189.945V147.18H191.365V149.48H194.565V150.68H191.365V156.96C191.365 157.587 191.518 158.067 191.825 158.4C192.145 158.72 192.598 158.88 193.185 158.88C193.478 158.88 193.758 158.833 194.025 158.74C194.305 158.647 194.545 158.513 194.745 158.34L195.245 159.36ZM212.924 160L209.724 155.5C209.364 155.54 208.991 155.56 208.604 155.56H204.844V160H203.364V146H208.604C210.391 146 211.791 146.427 212.804 147.28C213.817 148.133 214.324 149.307 214.324 150.8C214.324 151.893 214.044 152.82 213.484 153.58C212.937 154.327 212.151 154.867 211.124 155.2L214.544 160H212.924ZM208.564 154.3C209.951 154.3 211.011 153.993 211.744 153.38C212.477 152.767 212.844 151.907 212.844 150.8C212.844 149.667 212.477 148.8 211.744 148.2C211.011 147.587 209.951 147.28 208.564 147.28H204.844V154.3H208.564ZM226.677 155.18H217.877C217.957 156.273 218.377 157.16 219.137 157.84C219.897 158.507 220.857 158.84 222.017 158.84C222.67 158.84 223.27 158.727 223.817 158.5C224.364 158.26 224.837 157.913 225.237 157.46L226.037 158.38C225.57 158.94 224.984 159.367 224.277 159.66C223.584 159.953 222.817 160.1 221.977 160.1C220.897 160.1 219.937 159.873 219.097 159.42C218.27 158.953 217.624 158.313 217.157 157.5C216.69 156.687 216.457 155.767 216.457 154.74C216.457 153.713 216.677 152.793 217.117 151.98C217.57 151.167 218.184 150.533 218.957 150.08C219.744 149.627 220.624 149.4 221.597 149.4C222.57 149.4 223.444 149.627 224.217 150.08C224.99 150.533 225.597 151.167 226.037 151.98C226.477 152.78 226.697 153.7 226.697 154.74L226.677 155.18ZM221.597 150.62C220.584 150.62 219.73 150.947 219.037 151.6C218.357 152.24 217.97 153.08 217.877 154.12H225.337C225.244 153.08 224.85 152.24 224.157 151.6C223.477 150.947 222.624 150.62 221.597 150.62ZM233.947 160.1C232.907 160.1 231.974 159.873 231.147 159.42C230.334 158.967 229.694 158.333 229.227 157.52C228.761 156.693 228.527 155.767 228.527 154.74C228.527 153.713 228.761 152.793 229.227 151.98C229.694 151.167 230.334 150.533 231.147 150.08C231.974 149.627 232.907 149.4 233.947 149.4C234.854 149.4 235.661 149.58 236.367 149.94C237.087 150.287 237.654 150.8 238.067 151.48L237.007 152.2C236.661 151.68 236.221 151.293 235.687 151.04C235.154 150.773 234.574 150.64 233.947 150.64C233.187 150.64 232.501 150.813 231.887 151.16C231.287 151.493 230.814 151.973 230.467 152.6C230.134 153.227 229.967 153.94 229.967 154.74C229.967 155.553 230.134 156.273 230.467 156.9C230.814 157.513 231.287 157.993 231.887 158.34C232.501 158.673 233.187 158.84 233.947 158.84C234.574 158.84 235.154 158.713 235.687 158.46C236.221 158.207 236.661 157.82 237.007 157.3L238.067 158.02C237.654 158.7 237.087 159.22 236.367 159.58C235.647 159.927 234.841 160.1 233.947 160.1ZM244.981 160.1C243.968 160.1 243.055 159.873 242.241 159.42C241.428 158.953 240.788 158.313 240.321 157.5C239.855 156.687 239.621 155.767 239.621 154.74C239.621 153.713 239.855 152.793 240.321 151.98C240.788 151.167 241.428 150.533 242.241 150.08C243.055 149.627 243.968 149.4 244.981 149.4C245.995 149.4 246.908 149.627 247.721 150.08C248.535 150.533 249.168 151.167 249.621 151.98C250.088 152.793 250.321 153.713 250.321 154.74C250.321 155.767 250.088 156.687 249.621 157.5C249.168 158.313 248.535 158.953 247.721 159.42C246.908 159.873 245.995 160.1 244.981 160.1ZM244.981 158.84C245.728 158.84 246.395 158.673 246.981 158.34C247.581 157.993 248.048 157.507 248.381 156.88C248.715 156.253 248.881 155.54 248.881 154.74C248.881 153.94 248.715 153.227 248.381 152.6C248.048 151.973 247.581 151.493 246.981 151.16C246.395 150.813 245.728 150.64 244.981 150.64C244.235 150.64 243.561 150.813 242.961 151.16C242.375 151.493 241.908 151.973 241.561 152.6C241.228 153.227 241.061 153.94 241.061 154.74C241.061 155.54 241.228 156.253 241.561 156.88C241.908 157.507 242.375 157.993 242.961 158.34C243.561 158.673 244.235 158.84 244.981 158.84ZM254.58 151.54C254.914 150.833 255.407 150.3 256.06 149.94C256.727 149.58 257.547 149.4 258.52 149.4V150.78L258.18 150.76C257.074 150.76 256.207 151.1 255.58 151.78C254.954 152.46 254.64 153.413 254.64 154.64V160H253.22V149.48H254.58V151.54ZM270.594 145.16V160H269.234V157.92C268.807 158.627 268.24 159.167 267.534 159.54C266.84 159.913 266.054 160.1 265.174 160.1C264.187 160.1 263.294 159.873 262.494 159.42C261.694 158.967 261.067 158.333 260.614 157.52C260.16 156.707 259.934 155.78 259.934 154.74C259.934 153.7 260.16 152.773 260.614 151.96C261.067 151.147 261.694 150.52 262.494 150.08C263.294 149.627 264.187 149.4 265.174 149.4C266.027 149.4 266.794 149.58 267.474 149.94C268.167 150.287 268.734 150.8 269.174 151.48V145.16H270.594ZM265.294 158.84C266.027 158.84 266.687 158.673 267.274 158.34C267.874 157.993 268.34 157.507 268.674 156.88C269.02 156.253 269.194 155.54 269.194 154.74C269.194 153.94 269.02 153.227 268.674 152.6C268.34 151.973 267.874 151.493 267.274 151.16C266.687 150.813 266.027 150.64 265.294 150.64C264.547 150.64 263.874 150.813 263.274 151.16C262.687 151.493 262.22 151.973 261.874 152.6C261.54 153.227 261.374 153.94 261.374 154.74C261.374 155.54 261.54 156.253 261.874 156.88C262.22 157.507 262.687 157.993 263.274 158.34C263.874 158.673 264.547 158.84 265.294 158.84ZM277.368 160.1C276.515 160.1 275.695 159.98 274.908 159.74C274.135 159.487 273.528 159.173 273.088 158.8L273.728 157.68C274.168 158.027 274.722 158.313 275.388 158.54C276.055 158.753 276.748 158.86 277.468 158.86C278.428 158.86 279.135 158.713 279.588 158.42C280.055 158.113 280.288 157.687 280.288 157.14C280.288 156.753 280.162 156.453 279.908 156.24C279.655 156.013 279.335 155.847 278.948 155.74C278.562 155.62 278.048 155.507 277.408 155.4C276.555 155.24 275.868 155.08 275.348 154.92C274.828 154.747 274.382 154.46 274.008 154.06C273.648 153.66 273.468 153.107 273.468 152.4C273.468 151.52 273.835 150.8 274.568 150.24C275.302 149.68 276.322 149.4 277.628 149.4C278.308 149.4 278.988 149.493 279.668 149.68C280.348 149.853 280.908 150.087 281.348 150.38L280.728 151.52C279.862 150.92 278.828 150.62 277.628 150.62C276.722 150.62 276.035 150.78 275.568 151.1C275.115 151.42 274.888 151.84 274.888 152.36C274.888 152.76 275.015 153.08 275.268 153.32C275.535 153.56 275.862 153.74 276.248 153.86C276.635 153.967 277.168 154.08 277.848 154.2C278.688 154.36 279.362 154.52 279.868 154.68C280.375 154.84 280.808 155.113 281.168 155.5C281.528 155.887 281.708 156.42 281.708 157.1C281.708 158.02 281.322 158.753 280.548 159.3C279.788 159.833 278.728 160.1 277.368 160.1Z" fill="#828282"/>
</svg>
